<mxfile host="app.diagrams.net" agent="Mozilla/5.0 (X11; Ubuntu; Linux x86_64; rv:143.0) Gecko/20100101 Firefox/143.0" version="28.2.5">
  <diagram name="Página-1" id="_ciq8GANkz9Tw5vr11Id">
    <mxGraphModel dx="2171" dy="2863" grid="1" gridSize="10" guides="1" tooltips="1" connect="1" arrows="1" fold="1" page="1" pageScale="1" pageWidth="827" pageHeight="1169" math="0" shadow="0">
      <root>
        <mxCell id="0" />
        <mxCell id="1" parent="0" />
        <mxCell id="sn4AJc1EIGA8AgyFP-6u-1" value="Vivero" style="rounded=0;whiteSpace=wrap;html=1;strokeColor=light-dark(#000000,#000000);fontColor=light-dark(#000000,#000000);fillColor=light-dark(#FF99FF,#FF99FF);fontStyle=1" parent="1" vertex="1">
          <mxGeometry x="885" y="290" width="120" height="60" as="geometry" />
        </mxCell>
        <mxCell id="sn4AJc1EIGA8AgyFP-6u-2" value="Código vivero" style="ellipse;whiteSpace=wrap;html=1;aspect=fixed;fontStyle=1;gradientColor=none;fillColor=light-dark(#FF00FF,#FF00FF);strokeColor=light-dark(#000000,#000000);fontColor=light-dark(#000000,#000000);" parent="1" vertex="1">
          <mxGeometry x="720" y="390" width="90" height="90" as="geometry" />
        </mxCell>
        <mxCell id="sn4AJc1EIGA8AgyFP-6u-3" value="Nombre" style="ellipse;whiteSpace=wrap;html=1;aspect=fixed;strokeColor=light-dark(#000000,#000000);fontColor=light-dark(#000000,#000000);fillColor=light-dark(#FF99FF,#FF99FF);fontStyle=1" parent="1" vertex="1">
          <mxGeometry x="810" y="390" width="90" height="90" as="geometry" />
        </mxCell>
        <mxCell id="sn4AJc1EIGA8AgyFP-6u-4" value="Dirección" style="ellipse;whiteSpace=wrap;html=1;aspect=fixed;strokeColor=light-dark(#000000,#000000);fontColor=light-dark(#000000,#000000);fillColor=light-dark(#FF99FF,#FF99FF);fontStyle=1" parent="1" vertex="1">
          <mxGeometry x="900" y="390" width="90" height="90" as="geometry" />
        </mxCell>
        <mxCell id="sn4AJc1EIGA8AgyFP-6u-5" value="Latitud" style="ellipse;whiteSpace=wrap;html=1;aspect=fixed;strokeColor=light-dark(#000000,#000000);fontColor=light-dark(#000000,#000000);fillColor=light-dark(#FF99FF,#FF99FF);fontStyle=1" parent="1" vertex="1">
          <mxGeometry x="990" y="390" width="90" height="90" as="geometry" />
        </mxCell>
        <mxCell id="sn4AJc1EIGA8AgyFP-6u-6" value="Longitud" style="ellipse;whiteSpace=wrap;html=1;aspect=fixed;strokeColor=light-dark(#000000,#000000);fontColor=light-dark(#000000,#000000);fillColor=light-dark(#FF99FF,#FF99FF);fontStyle=1" parent="1" vertex="1">
          <mxGeometry x="1080" y="390" width="90" height="90" as="geometry" />
        </mxCell>
        <mxCell id="sn4AJc1EIGA8AgyFP-6u-7" value="Código zona" style="ellipse;whiteSpace=wrap;html=1;aspect=fixed;fontStyle=1;fillColor=light-dark(#FF00FF,#FF00FF);fontColor=light-dark(#000000,#000000);strokeColor=light-dark(#000000,#000000);" parent="1" vertex="1">
          <mxGeometry x="189" y="390" width="90" height="90" as="geometry" />
        </mxCell>
        <mxCell id="sn4AJc1EIGA8AgyFP-6u-9" value="Descripción" style="ellipse;whiteSpace=wrap;html=1;aspect=fixed;fillColor=light-dark(#FF99FF,#FF99FF);fontColor=light-dark(#000000,#000000);strokeColor=light-dark(#000000,#000000);fontStyle=1" parent="1" vertex="1">
          <mxGeometry x="369" y="390" width="90" height="90" as="geometry" />
        </mxCell>
        <mxCell id="sn4AJc1EIGA8AgyFP-6u-10" value="Latitud" style="ellipse;whiteSpace=wrap;html=1;aspect=fixed;fillColor=light-dark(#FF99FF,#FF99FF);fontColor=light-dark(#000000,#000000);strokeColor=light-dark(#000000,#000000);fontStyle=1" parent="1" vertex="1">
          <mxGeometry x="459" y="390" width="90" height="90" as="geometry" />
        </mxCell>
        <mxCell id="sn4AJc1EIGA8AgyFP-6u-11" value="Longitud" style="ellipse;whiteSpace=wrap;html=1;aspect=fixed;strokeColor=light-dark(#000000,#000000);fontColor=light-dark(#000000,#000000);fillColor=light-dark(#FF99FF,#FF99FF);fontStyle=1" parent="1" vertex="1">
          <mxGeometry x="549" y="390" width="90" height="90" as="geometry" />
        </mxCell>
        <mxCell id="sn4AJc1EIGA8AgyFP-6u-12" value="Empleado" style="rounded=0;whiteSpace=wrap;html=1;strokeColor=light-dark(#000000,#000000);fontColor=light-dark(#000000,#000000);fillColor=light-dark(#FF99FF,#FF99FF);fontStyle=1" parent="1" vertex="1">
          <mxGeometry x="1295.25" y="135" width="120" height="60" as="geometry" />
        </mxCell>
        <mxCell id="sn4AJc1EIGA8AgyFP-6u-13" value="Código empleado" style="ellipse;whiteSpace=wrap;html=1;aspect=fixed;fontStyle=1;gradientColor=none;fillColor=light-dark(#FF00FF,#FF00FF);strokeColor=light-dark(#000000,#000000);fontColor=light-dark(#000000,#000000);" parent="1" vertex="1">
          <mxGeometry x="1130.25" width="90" height="90" as="geometry" />
        </mxCell>
        <mxCell id="sn4AJc1EIGA8AgyFP-6u-14" value="Apellidos" style="ellipse;whiteSpace=wrap;html=1;aspect=fixed;strokeColor=light-dark(#000000,#000000);fontColor=light-dark(#000000,#000000);fillColor=light-dark(#FF99FF,#FF99FF);fontStyle=1" parent="1" vertex="1">
          <mxGeometry x="1310.25" width="90" height="90" as="geometry" />
        </mxCell>
        <mxCell id="sn4AJc1EIGA8AgyFP-6u-15" value="Nombre" style="ellipse;whiteSpace=wrap;html=1;aspect=fixed;strokeColor=light-dark(#000000,#000000);fontColor=light-dark(#000000,#000000);fillColor=light-dark(#FF99FF,#FF99FF);fontStyle=1" parent="1" vertex="1">
          <mxGeometry x="1220.25" width="90" height="90" as="geometry" />
        </mxCell>
        <mxCell id="sn4AJc1EIGA8AgyFP-6u-16" value="DNI" style="ellipse;whiteSpace=wrap;html=1;aspect=fixed;strokeColor=light-dark(#000000,#000000);fontColor=light-dark(#000000,#000000);fillColor=light-dark(#FF99FF,#FF99FF);fontStyle=1" parent="1" vertex="1">
          <mxGeometry x="1400.25" width="90" height="90" as="geometry" />
        </mxCell>
        <mxCell id="sn4AJc1EIGA8AgyFP-6u-17" value="Fecha contratación" style="ellipse;whiteSpace=wrap;html=1;aspect=fixed;strokeColor=light-dark(#000000,#000000);fontColor=light-dark(#000000,#000000);fillColor=light-dark(#FF99FF,#FF99FF);fontStyle=1" parent="1" vertex="1">
          <mxGeometry x="1490.25" width="90" height="90" as="geometry" />
        </mxCell>
        <mxCell id="sn4AJc1EIGA8AgyFP-6u-18" value="&lt;div&gt;Código&lt;/div&gt;&lt;div&gt;productividad&lt;/div&gt;&lt;div&gt;zona&lt;/div&gt;" style="ellipse;whiteSpace=wrap;html=1;aspect=fixed;fontStyle=1;fillColor=light-dark(#FF00FF,#FF00FF);fontColor=light-dark(#000000,#000000);strokeColor=light-dark(#000000,#000000);" parent="1" vertex="1">
          <mxGeometry x="-35" y="-115" width="90" height="90" as="geometry" />
        </mxCell>
        <mxCell id="sn4AJc1EIGA8AgyFP-6u-19" value="Periodo" style="ellipse;whiteSpace=wrap;html=1;aspect=fixed;labelBackgroundColor=light-dark(#FF99FF,#FF99FF);fillColor=light-dark(#FF99FF,#FF99FF);fontColor=light-dark(#000000,#000000);gradientColor=none;strokeColor=light-dark(#000000,#000000);fontStyle=1" parent="1" vertex="1">
          <mxGeometry x="55" y="-115" width="90" height="90" as="geometry" />
        </mxCell>
        <mxCell id="sn4AJc1EIGA8AgyFP-6u-22" value="&lt;div&gt;Ventas&lt;/div&gt;&lt;div&gt;monetarias&lt;/div&gt;" style="ellipse;whiteSpace=wrap;html=1;aspect=fixed;labelBackgroundColor=light-dark(#FF99FF,#FF99FF);fillColor=light-dark(#FF99FF,#FF99FF);fontColor=light-dark(#000000,#000000);gradientColor=none;strokeColor=light-dark(#000000,#000000);fontStyle=1" parent="1" vertex="1">
          <mxGeometry x="145" y="-115" width="90" height="90" as="geometry" />
        </mxCell>
        <mxCell id="sn4AJc1EIGA8AgyFP-6u-23" value="&lt;div&gt;Unidades&lt;/div&gt;&lt;div&gt;vendidas&lt;/div&gt;" style="ellipse;whiteSpace=wrap;html=1;aspect=fixed;labelBackgroundColor=light-dark(#FF99FF,#FF99FF);fillColor=light-dark(#FF99FF,#FF99FF);fontColor=light-dark(#000000,#000000);gradientColor=none;strokeColor=light-dark(#000000,#000000);fontStyle=1" parent="1" vertex="1">
          <mxGeometry x="235" y="-115" width="90" height="90" as="geometry" />
        </mxCell>
        <mxCell id="sn4AJc1EIGA8AgyFP-6u-24" value="Pedido" style="rounded=0;whiteSpace=wrap;html=1;strokeColor=light-dark(#000000,#000000);fontColor=light-dark(#000000,#000000);fillColor=light-dark(#FF99FF,#FF99FF);fontStyle=1" parent="1" vertex="1">
          <mxGeometry x="1295.25" y="495" width="120" height="60" as="geometry" />
        </mxCell>
        <mxCell id="sn4AJc1EIGA8AgyFP-6u-25" value="Código pedido" style="ellipse;whiteSpace=wrap;html=1;aspect=fixed;fontStyle=1;gradientColor=none;fillColor=light-dark(#FF00FF,#FF00FF);strokeColor=light-dark(#000000,#000000);fontColor=light-dark(#000000,#000000);" parent="1" vertex="1">
          <mxGeometry x="1490.25" y="390" width="90" height="90" as="geometry" />
        </mxCell>
        <mxCell id="sn4AJc1EIGA8AgyFP-6u-26" value="Fecha" style="ellipse;whiteSpace=wrap;html=1;aspect=fixed;strokeColor=light-dark(#000000,#000000);fontColor=light-dark(#000000,#000000);fillColor=light-dark(#FF99FF,#FF99FF);fontStyle=1" parent="1" vertex="1">
          <mxGeometry x="1490.25" y="570" width="90" height="90" as="geometry" />
        </mxCell>
        <mxCell id="sn4AJc1EIGA8AgyFP-6u-28" value="Total" style="ellipse;whiteSpace=wrap;html=1;aspect=fixed;strokeColor=light-dark(#000000,#000000);fontColor=light-dark(#000000,#000000);fillColor=light-dark(#FF99FF,#FF99FF);fontStyle=1" parent="1" vertex="1">
          <mxGeometry x="1490.25" y="480" width="90" height="90" as="geometry" />
        </mxCell>
        <mxCell id="sn4AJc1EIGA8AgyFP-6u-30" value="Cliente" style="rounded=0;whiteSpace=wrap;html=1;strokeColor=light-dark(#000000,#000000);fontColor=light-dark(#000000,#000000);fillColor=light-dark(#FF99FF,#FF99FF);fontStyle=1" parent="1" vertex="1">
          <mxGeometry x="1295.25" y="955" width="120" height="60" as="geometry" />
        </mxCell>
        <mxCell id="sn4AJc1EIGA8AgyFP-6u-31" value="Código cliente" style="ellipse;whiteSpace=wrap;html=1;aspect=fixed;fontStyle=1;gradientColor=none;fillColor=light-dark(#FF00FF,#FF99FF);strokeColor=light-dark(#000000,#000000);fontColor=light-dark(#000000,#000000);" parent="1" vertex="1">
          <mxGeometry x="995" y="1055" width="90" height="90" as="geometry" />
        </mxCell>
        <mxCell id="sn4AJc1EIGA8AgyFP-6u-33" value="Nombre" style="ellipse;whiteSpace=wrap;html=1;aspect=fixed;strokeColor=light-dark(#000000,#000000);fontColor=light-dark(#000000,#000000);fillColor=light-dark(#FF99FF,#FF99FF);fontStyle=1" parent="1" vertex="1">
          <mxGeometry x="1085" y="1055" width="90" height="90" as="geometry" />
        </mxCell>
        <mxCell id="sn4AJc1EIGA8AgyFP-6u-35" value="Fecha ingreso Plus" style="ellipse;whiteSpace=wrap;html=1;aspect=fixed;strokeColor=light-dark(#000000,#000000);fontColor=light-dark(#000000,#000000);fillColor=light-dark(#FF99FF,#FF99FF);fontStyle=1" parent="1" vertex="1">
          <mxGeometry x="1535.5" y="1055" width="90" height="90" as="geometry" />
        </mxCell>
        <mxCell id="sn4AJc1EIGA8AgyFP-6u-36" value="Producto" style="rounded=0;whiteSpace=wrap;html=1;fillColor=light-dark(#FF99FF,#FF99FF);fontColor=light-dark(#000000,#000000);strokeColor=light-dark(#000000,#000000);fontStyle=1" parent="1" vertex="1">
          <mxGeometry x="-5" y="508.75" width="120" height="60" as="geometry" />
        </mxCell>
        <mxCell id="sn4AJc1EIGA8AgyFP-6u-37" value="Código producto" style="ellipse;whiteSpace=wrap;html=1;aspect=fixed;fontStyle=1;fillColor=light-dark(#FF00FF,#FF00FF);fontColor=light-dark(#000000,#000000);strokeColor=light-dark(#000000,#000000);" parent="1" vertex="1">
          <mxGeometry x="-170" y="610" width="90" height="90" as="geometry" />
        </mxCell>
        <mxCell id="sn4AJc1EIGA8AgyFP-6u-38" value="Nombre" style="ellipse;whiteSpace=wrap;html=1;aspect=fixed;fillColor=light-dark(#FF99FF,#FF99FF);fontColor=light-dark(#000000,#000000);strokeColor=light-dark(#000000,#000000);fontStyle=1" parent="1" vertex="1">
          <mxGeometry x="-80" y="610" width="90" height="90" as="geometry" />
        </mxCell>
        <mxCell id="sn4AJc1EIGA8AgyFP-6u-39" value="Descripción" style="ellipse;whiteSpace=wrap;html=1;aspect=fixed;fillColor=light-dark(#FF99FF,#FF99FF);fontColor=light-dark(#000000,#000000);strokeColor=light-dark(#000000,#000000);fontStyle=1" parent="1" vertex="1">
          <mxGeometry x="10" y="610" width="90" height="90" as="geometry" />
        </mxCell>
        <mxCell id="sn4AJc1EIGA8AgyFP-6u-41" value="Zona" style="shape=process;whiteSpace=wrap;html=1;backgroundOutline=1;fillColor=light-dark(#FF99FF,#FF99FF);fontColor=light-dark(#000000,#000000);strokeColor=light-dark(#000000,#000000);fontStyle=1" parent="1" vertex="1">
          <mxGeometry x="354" y="290" width="120" height="60" as="geometry" />
        </mxCell>
        <mxCell id="sn4AJc1EIGA8AgyFP-6u-42" value="" style="endArrow=none;html=1;rounded=0;fontSize=12;startSize=8;endSize=8;curved=1;exitX=1;exitY=0.5;exitDx=0;exitDy=0;entryX=0;entryY=0.5;entryDx=0;entryDy=0;strokeColor=light-dark(#000000,#000000);fontStyle=1" parent="1" source="sn4AJc1EIGA8AgyFP-6u-41" target="sn4AJc1EIGA8AgyFP-6u-46" edge="1">
          <mxGeometry width="50" height="50" relative="1" as="geometry">
            <mxPoint x="750" y="350" as="sourcePoint" />
            <mxPoint x="640" y="320" as="targetPoint" />
          </mxGeometry>
        </mxCell>
        <mxCell id="sn4AJc1EIGA8AgyFP-6u-43" value="1:1" style="edgeLabel;html=1;align=center;verticalAlign=middle;resizable=0;points=[];fontSize=12;fontStyle=1" parent="sn4AJc1EIGA8AgyFP-6u-42" vertex="1" connectable="0">
          <mxGeometry x="-0.6454" y="-1" relative="1" as="geometry">
            <mxPoint x="371" y="-8" as="offset" />
          </mxGeometry>
        </mxCell>
        <mxCell id="sn4AJc1EIGA8AgyFP-6u-44" value="" style="endArrow=none;html=1;rounded=0;fontSize=12;startSize=8;endSize=8;curved=1;entryX=0;entryY=0.5;entryDx=0;entryDy=0;exitX=1;exitY=0.5;exitDx=0;exitDy=0;strokeColor=light-dark(#000000,#000000);fontStyle=1" parent="1" source="sn4AJc1EIGA8AgyFP-6u-46" target="sn4AJc1EIGA8AgyFP-6u-1" edge="1">
          <mxGeometry width="50" height="50" relative="1" as="geometry">
            <mxPoint x="760" y="320" as="sourcePoint" />
            <mxPoint x="870" y="320" as="targetPoint" />
          </mxGeometry>
        </mxCell>
        <mxCell id="sn4AJc1EIGA8AgyFP-6u-45" value="1:N" style="edgeLabel;html=1;align=center;verticalAlign=middle;resizable=0;points=[];fontSize=12;fontStyle=1" parent="sn4AJc1EIGA8AgyFP-6u-44" vertex="1" connectable="0">
          <mxGeometry x="0.6" y="-3" relative="1" as="geometry">
            <mxPoint x="-368" y="-18" as="offset" />
          </mxGeometry>
        </mxCell>
        <mxCell id="sn4AJc1EIGA8AgyFP-6u-46" value="&lt;div&gt;&lt;span&gt;ID&lt;/span&gt;&lt;/div&gt;&lt;div&gt;&lt;br&gt;&lt;/div&gt;tiene" style="rhombus;whiteSpace=wrap;html=1;fillColor=light-dark(#FFFF99,#FFFF99);fontColor=light-dark(#000000,#000000);strokeColor=light-dark(#000000,#000000);fontStyle=1" parent="1" vertex="1">
          <mxGeometry x="615" y="280" width="130" height="80" as="geometry" />
        </mxCell>
        <mxCell id="sn4AJc1EIGA8AgyFP-6u-47" value="Precio unitario" style="ellipse;whiteSpace=wrap;html=1;aspect=fixed;fillColor=light-dark(#FF99FF,#FF99FF);fontColor=light-dark(#000000,#000000);strokeColor=light-dark(#000000,#000000);fontStyle=1" parent="1" vertex="1">
          <mxGeometry x="190" y="610" width="90" height="90" as="geometry" />
        </mxCell>
        <mxCell id="sn4AJc1EIGA8AgyFP-6u-48" value="Apellidos" style="ellipse;whiteSpace=wrap;html=1;aspect=fixed;strokeColor=light-dark(#000000,#000000);fontColor=light-dark(#000000,#000000);fillColor=light-dark(#FF99FF,#FF99FF);fontStyle=1" parent="1" vertex="1">
          <mxGeometry x="1175" y="1055" width="90" height="90" as="geometry" />
        </mxCell>
        <mxCell id="sn4AJc1EIGA8AgyFP-6u-49" value="Es Tajinaste Plus" style="ellipse;whiteSpace=wrap;html=1;aspect=fixed;strokeColor=light-dark(#000000,#000000);fontColor=light-dark(#000000,#000000);fillColor=light-dark(#FF99FF,#FF99FF);fontStyle=1" parent="1" vertex="1">
          <mxGeometry x="1445.5" y="1055" width="90" height="90" as="geometry" />
        </mxCell>
        <mxCell id="sn4AJc1EIGA8AgyFP-6u-50" value="&lt;span&gt;incluye&lt;/span&gt;" style="rhombus;whiteSpace=wrap;html=1;fillColor=light-dark(#FFFF99,#FFFF99);fontColor=light-dark(#000000,#000000);strokeColor=light-dark(#000000,#000000);fontStyle=1" parent="1" vertex="1">
          <mxGeometry x="599" y="750" width="130" height="80" as="geometry" />
        </mxCell>
        <mxCell id="sn4AJc1EIGA8AgyFP-6u-51" value="" style="endArrow=none;html=1;rounded=0;fontSize=12;startSize=8;endSize=8;curved=1;entryX=1;entryY=0.5;entryDx=0;entryDy=0;exitX=0;exitY=0.5;exitDx=0;exitDy=0;strokeColor=light-dark(#000000,#000000);fontStyle=1" parent="1" source="sn4AJc1EIGA8AgyFP-6u-50" target="sn4AJc1EIGA8AgyFP-6u-36" edge="1">
          <mxGeometry width="50" height="50" relative="1" as="geometry">
            <mxPoint x="390" y="540" as="sourcePoint" />
            <mxPoint x="475" y="670" as="targetPoint" />
          </mxGeometry>
        </mxCell>
        <mxCell id="sn4AJc1EIGA8AgyFP-6u-52" value="1:N" style="edgeLabel;html=1;align=center;verticalAlign=middle;resizable=0;points=[];fontSize=12;fontStyle=1" parent="sn4AJc1EIGA8AgyFP-6u-51" vertex="1" connectable="0">
          <mxGeometry x="0.868" y="2" relative="1" as="geometry">
            <mxPoint x="-15" y="-27" as="offset" />
          </mxGeometry>
        </mxCell>
        <mxCell id="sn4AJc1EIGA8AgyFP-6u-53" value="" style="endArrow=none;html=1;rounded=0;fontSize=12;startSize=8;endSize=8;curved=1;entryX=0;entryY=0.5;entryDx=0;entryDy=0;exitX=1;exitY=0.5;exitDx=0;exitDy=0;strokeColor=light-dark(#000000,#000000);fontStyle=1" parent="1" source="sn4AJc1EIGA8AgyFP-6u-50" target="sn4AJc1EIGA8AgyFP-6u-24" edge="1">
          <mxGeometry width="50" height="50" relative="1" as="geometry">
            <mxPoint x="650" y="720" as="sourcePoint" />
            <mxPoint x="700" y="670" as="targetPoint" />
          </mxGeometry>
        </mxCell>
        <mxCell id="sn4AJc1EIGA8AgyFP-6u-54" value="0:N" style="edgeLabel;html=1;align=center;verticalAlign=middle;resizable=0;points=[];fontSize=12;fontStyle=1" parent="sn4AJc1EIGA8AgyFP-6u-53" vertex="1" connectable="0">
          <mxGeometry x="0.9345" y="5" relative="1" as="geometry">
            <mxPoint x="-8" y="-9" as="offset" />
          </mxGeometry>
        </mxCell>
        <mxCell id="sn4AJc1EIGA8AgyFP-6u-55" value="" style="endArrow=none;html=1;rounded=0;fontSize=12;startSize=8;endSize=8;curved=1;entryX=0.5;entryY=1;entryDx=0;entryDy=0;exitX=0.5;exitY=0;exitDx=0;exitDy=0;strokeColor=light-dark(#000000,#000000);fontStyle=1" parent="1" source="sn4AJc1EIGA8AgyFP-6u-57" target="sn4AJc1EIGA8AgyFP-6u-50" edge="1">
          <mxGeometry width="50" height="50" relative="1" as="geometry">
            <mxPoint x="18.25" y="1030" as="sourcePoint" />
            <mxPoint x="79" y="1030" as="targetPoint" />
          </mxGeometry>
        </mxCell>
        <mxCell id="sn4AJc1EIGA8AgyFP-6u-56" value="" style="endArrow=none;html=1;rounded=0;fontSize=12;startSize=8;endSize=8;curved=1;entryX=0.5;entryY=1;entryDx=0;entryDy=0;exitX=0.5;exitY=0;exitDx=0;exitDy=0;strokeColor=light-dark(#000000,#000000);fontStyle=1" parent="1" source="sn4AJc1EIGA8AgyFP-6u-58" target="sn4AJc1EIGA8AgyFP-6u-50" edge="1">
          <mxGeometry width="50" height="50" relative="1" as="geometry">
            <mxPoint x="109" y="1030" as="sourcePoint" />
            <mxPoint x="79" y="1040" as="targetPoint" />
          </mxGeometry>
        </mxCell>
        <mxCell id="sn4AJc1EIGA8AgyFP-6u-57" value="&lt;div&gt;Precio&lt;/div&gt;&lt;div&gt;unitario&lt;/div&gt;" style="ellipse;whiteSpace=wrap;html=1;aspect=fixed;strokeColor=light-dark(#000000,#000000);fontColor=light-dark(#000000,#000000);fillColor=light-dark(#FF99FF,#FF99FF);fontStyle=1" parent="1" vertex="1">
          <mxGeometry x="574" y="900" width="90" height="90" as="geometry" />
        </mxCell>
        <mxCell id="sn4AJc1EIGA8AgyFP-6u-58" value="Cantidad" style="ellipse;whiteSpace=wrap;html=1;aspect=fixed;strokeColor=light-dark(#000000,#000000);fontColor=light-dark(#000000,#000000);fillColor=light-dark(#FF99FF,#FF99FF);fontStyle=1" parent="1" vertex="1">
          <mxGeometry x="664" y="900" width="90" height="90" as="geometry" />
        </mxCell>
        <mxCell id="sn4AJc1EIGA8AgyFP-6u-59" value="Código productividad empleado" style="ellipse;whiteSpace=wrap;html=1;aspect=fixed;fontStyle=1;gradientColor=none;fillColor=light-dark(#FF00FF,#FF00FF);strokeColor=light-dark(#000000,#000000);fontColor=light-dark(#000000,#000000);" parent="1" vertex="1">
          <mxGeometry x="1660" y="280" width="90" height="90" as="geometry" />
        </mxCell>
        <mxCell id="sn4AJc1EIGA8AgyFP-6u-60" value="Periodo" style="ellipse;whiteSpace=wrap;html=1;aspect=fixed;strokeColor=light-dark(#000000,#000000);fontColor=light-dark(#000000,#000000);fillColor=light-dark(#FF99FF,#FF99FF);fontStyle=1" parent="1" vertex="1">
          <mxGeometry x="1750" y="280" width="90" height="90" as="geometry" />
        </mxCell>
        <mxCell id="sn4AJc1EIGA8AgyFP-6u-62" value="Ventas monetarias" style="ellipse;whiteSpace=wrap;html=1;aspect=fixed;strokeColor=light-dark(#000000,#000000);fontColor=light-dark(#000000,#000000);fillColor=light-dark(#FF99FF,#FF99FF);fontStyle=1" parent="1" vertex="1">
          <mxGeometry x="1840" y="280" width="90" height="90" as="geometry" />
        </mxCell>
        <mxCell id="sn4AJc1EIGA8AgyFP-6u-63" value="Pedidos gestionados" style="ellipse;whiteSpace=wrap;html=1;aspect=fixed;strokeColor=light-dark(#000000,#000000);fontColor=light-dark(#000000,#000000);fillColor=light-dark(#FF99FF,#FF99FF);fontStyle=1" parent="1" vertex="1">
          <mxGeometry x="1930" y="280" width="90" height="90" as="geometry" />
        </mxCell>
        <mxCell id="sn4AJc1EIGA8AgyFP-6u-64" value="&lt;div&gt;&lt;span&gt;asigna&lt;/span&gt;&lt;/div&gt;&lt;div&gt;&lt;span&gt;(stock)&lt;/span&gt;&lt;/div&gt;" style="rhombus;whiteSpace=wrap;html=1;fillColor=light-dark(#FFFF99,#FFFF99);fontColor=light-dark(#000000,#000000);strokeColor=light-dark(#000000,#000000);fontStyle=1" parent="1" vertex="1">
          <mxGeometry x="-10" y="280" width="130" height="80" as="geometry" />
        </mxCell>
        <mxCell id="sn4AJc1EIGA8AgyFP-6u-65" value="" style="endArrow=none;html=1;rounded=0;fontSize=12;startSize=8;endSize=8;curved=1;entryX=0.5;entryY=1;entryDx=0;entryDy=0;exitX=0.5;exitY=0;exitDx=0;exitDy=0;strokeColor=light-dark(#000000,#000000);fontStyle=1" parent="1" source="sn4AJc1EIGA8AgyFP-6u-36" target="sn4AJc1EIGA8AgyFP-6u-64" edge="1">
          <mxGeometry width="50" height="50" relative="1" as="geometry">
            <mxPoint x="10" y="580" as="sourcePoint" />
            <mxPoint x="60" y="530" as="targetPoint" />
          </mxGeometry>
        </mxCell>
        <mxCell id="sn4AJc1EIGA8AgyFP-6u-66" value="0:N" style="edgeLabel;html=1;align=center;verticalAlign=middle;resizable=0;points=[];fontSize=12;fontStyle=1" parent="sn4AJc1EIGA8AgyFP-6u-65" vertex="1" connectable="0">
          <mxGeometry x="-0.8451" y="-1" relative="1" as="geometry">
            <mxPoint x="13" y="-6" as="offset" />
          </mxGeometry>
        </mxCell>
        <mxCell id="sn4AJc1EIGA8AgyFP-6u-67" value="" style="endArrow=none;html=1;rounded=0;fontSize=12;startSize=8;endSize=8;curved=1;entryX=1;entryY=0.5;entryDx=0;entryDy=0;exitX=0;exitY=0.5;exitDx=0;exitDy=0;strokeColor=light-dark(#000000,#000000);fontStyle=1" parent="1" source="sn4AJc1EIGA8AgyFP-6u-41" target="sn4AJc1EIGA8AgyFP-6u-64" edge="1">
          <mxGeometry width="50" height="50" relative="1" as="geometry">
            <mxPoint x="-60" y="390" as="sourcePoint" />
            <mxPoint x="118" y="330" as="targetPoint" />
          </mxGeometry>
        </mxCell>
        <mxCell id="sn4AJc1EIGA8AgyFP-6u-68" value="0:N" style="edgeLabel;html=1;align=center;verticalAlign=middle;resizable=0;points=[];fontSize=12;fontStyle=1" parent="sn4AJc1EIGA8AgyFP-6u-67" vertex="1" connectable="0">
          <mxGeometry x="-0.8632" relative="1" as="geometry">
            <mxPoint x="-4" y="-15" as="offset" />
          </mxGeometry>
        </mxCell>
        <mxCell id="sn4AJc1EIGA8AgyFP-6u-69" value="" style="endArrow=none;html=1;rounded=0;fontSize=12;startSize=8;endSize=8;curved=1;entryX=0.5;entryY=0;entryDx=0;entryDy=0;exitX=1;exitY=1;exitDx=0;exitDy=0;strokeColor=light-dark(#000000,#000000);fontStyle=1" parent="1" source="sn4AJc1EIGA8AgyFP-6u-71" target="sn4AJc1EIGA8AgyFP-6u-64" edge="1">
          <mxGeometry width="50" height="50" relative="1" as="geometry">
            <mxPoint x="30" y="250" as="sourcePoint" />
            <mxPoint x="146.5" y="510" as="targetPoint" />
          </mxGeometry>
        </mxCell>
        <mxCell id="sn4AJc1EIGA8AgyFP-6u-70" value="" style="endArrow=none;html=1;rounded=0;fontSize=12;startSize=8;endSize=8;curved=1;entryX=0.5;entryY=0;entryDx=0;entryDy=0;strokeColor=light-dark(#000000,#000000);fontStyle=1" parent="1" target="sn4AJc1EIGA8AgyFP-6u-64" edge="1">
          <mxGeometry width="50" height="50" relative="1" as="geometry">
            <mxPoint x="80" y="250" as="sourcePoint" />
            <mxPoint x="120" y="250" as="targetPoint" />
          </mxGeometry>
        </mxCell>
        <mxCell id="sn4AJc1EIGA8AgyFP-6u-71" value="&lt;div&gt;Cantidad&lt;/div&gt;&lt;div&gt;disponible&lt;/div&gt;" style="ellipse;whiteSpace=wrap;html=1;aspect=fixed;fontColor=light-dark(#000000,#000000);fillColor=light-dark(#FF99FF,#FF99FF);strokeColor=light-dark(#000000,#000000);fontStyle=1" parent="1" vertex="1">
          <mxGeometry x="-50" y="170" width="90" height="90" as="geometry" />
        </mxCell>
        <mxCell id="sn4AJc1EIGA8AgyFP-6u-72" value="&lt;div&gt;Fecha última&lt;/div&gt;&lt;div&gt;actualización&lt;/div&gt;" style="ellipse;whiteSpace=wrap;html=1;aspect=fixed;fontColor=light-dark(#000000,#000000);fillColor=light-dark(#FF99FF,#FF99FF);strokeColor=light-dark(#000000,#000000);fontStyle=1" parent="1" vertex="1">
          <mxGeometry x="70" y="170" width="90" height="90" as="geometry" />
        </mxCell>
        <mxCell id="sn4AJc1EIGA8AgyFP-6u-73" value="" style="edgeStyle=orthogonalEdgeStyle;rounded=0;orthogonalLoop=1;jettySize=auto;html=1;fontStyle=1" parent="1" source="sn4AJc1EIGA8AgyFP-6u-74" target="sn4AJc1EIGA8AgyFP-6u-41" edge="1">
          <mxGeometry relative="1" as="geometry" />
        </mxCell>
        <mxCell id="sn4AJc1EIGA8AgyFP-6u-74" value="&lt;div&gt;&lt;span&gt;asignacion&lt;/span&gt;&lt;/div&gt;" style="rhombus;whiteSpace=wrap;html=1;fillColor=light-dark(#FFFF99,#FFFF99);fontColor=light-dark(#000000,#000000);strokeColor=light-dark(#000000,#000000);fontStyle=1" parent="1" vertex="1">
          <mxGeometry x="349" y="140" width="130" height="80" as="geometry" />
        </mxCell>
        <mxCell id="sn4AJc1EIGA8AgyFP-6u-75" value="" style="endArrow=none;html=1;rounded=0;fontSize=12;startSize=8;endSize=8;curved=1;entryX=1;entryY=0.5;entryDx=0;entryDy=0;exitX=0;exitY=0.5;exitDx=0;exitDy=0;strokeColor=light-dark(#000000,#000000);fontStyle=1" parent="1" source="sn4AJc1EIGA8AgyFP-6u-12" target="sn4AJc1EIGA8AgyFP-6u-74" edge="1">
          <mxGeometry width="50" height="50" relative="1" as="geometry">
            <mxPoint x="95" y="260" as="sourcePoint" />
            <mxPoint x="70" y="290" as="targetPoint" />
          </mxGeometry>
        </mxCell>
        <mxCell id="sn4AJc1EIGA8AgyFP-6u-76" value="0:N" style="edgeLabel;html=1;align=center;verticalAlign=middle;resizable=0;points=[];fontSize=12;fontStyle=1" parent="sn4AJc1EIGA8AgyFP-6u-75" vertex="1" connectable="0">
          <mxGeometry x="-0.5143" y="1" relative="1" as="geometry">
            <mxPoint x="168" y="-5" as="offset" />
          </mxGeometry>
        </mxCell>
        <mxCell id="sn4AJc1EIGA8AgyFP-6u-77" value="" style="endArrow=none;html=1;rounded=0;fontSize=12;startSize=8;endSize=8;curved=1;entryX=0.5;entryY=0;entryDx=0;entryDy=0;exitX=0.5;exitY=1;exitDx=0;exitDy=0;strokeColor=light-dark(#000000,#000000);fontStyle=1" parent="1" source="sn4AJc1EIGA8AgyFP-6u-74" target="sn4AJc1EIGA8AgyFP-6u-41" edge="1">
          <mxGeometry width="50" height="50" relative="1" as="geometry">
            <mxPoint x="410" y="120" as="sourcePoint" />
            <mxPoint x="410" y="190" as="targetPoint" />
          </mxGeometry>
        </mxCell>
        <mxCell id="sn4AJc1EIGA8AgyFP-6u-78" value="0:N" style="edgeLabel;html=1;align=center;verticalAlign=middle;resizable=0;points=[];fontSize=12;fontStyle=1" parent="sn4AJc1EIGA8AgyFP-6u-77" vertex="1" connectable="0">
          <mxGeometry x="0.6286" y="1" relative="1" as="geometry">
            <mxPoint as="offset" />
          </mxGeometry>
        </mxCell>
        <mxCell id="sn4AJc1EIGA8AgyFP-6u-79" value="&lt;div&gt;Fecha&lt;/div&gt;&lt;div&gt;inicio&lt;/div&gt;" style="ellipse;whiteSpace=wrap;html=1;aspect=fixed;fillColor=light-dark(#FF99FF,#FF99FF);fontColor=light-dark(#000000,#000000);strokeColor=light-dark(#000000,#000000);fontStyle=1" parent="1" vertex="1">
          <mxGeometry x="459" y="30" width="60" height="60" as="geometry" />
        </mxCell>
        <mxCell id="sn4AJc1EIGA8AgyFP-6u-80" value="Fecha&lt;div&gt;fin&lt;/div&gt;" style="ellipse;whiteSpace=wrap;html=1;aspect=fixed;fillColor=light-dark(#FF99FF,#FF99FF);fontColor=light-dark(#000000,#000000);strokeColor=light-dark(#000000,#000000);fontStyle=1" parent="1" vertex="1">
          <mxGeometry x="384" y="30" width="60" height="60" as="geometry" />
        </mxCell>
        <mxCell id="sn4AJc1EIGA8AgyFP-6u-81" value="Puesto" style="ellipse;whiteSpace=wrap;html=1;aspect=fixed;fillColor=light-dark(#FF99FF,#FF99FF);fontColor=light-dark(#000000,#000000);strokeColor=light-dark(#000000,#000000);fontStyle=1" parent="1" vertex="1">
          <mxGeometry x="309" y="30" width="60" height="60" as="geometry" />
        </mxCell>
        <mxCell id="sn4AJc1EIGA8AgyFP-6u-82" value="" style="endArrow=none;html=1;rounded=0;fontSize=12;startSize=8;endSize=8;curved=1;entryX=0.5;entryY=1;entryDx=0;entryDy=0;exitX=0.5;exitY=0;exitDx=0;exitDy=0;strokeColor=light-dark(#000000,#000000);fontStyle=1" parent="1" source="sn4AJc1EIGA8AgyFP-6u-74" target="sn4AJc1EIGA8AgyFP-6u-79" edge="1">
          <mxGeometry width="50" height="50" relative="1" as="geometry">
            <mxPoint x="499" y="179" as="sourcePoint" />
            <mxPoint x="639" y="179" as="targetPoint" />
          </mxGeometry>
        </mxCell>
        <mxCell id="sn4AJc1EIGA8AgyFP-6u-83" value="" style="endArrow=none;html=1;rounded=0;fontSize=12;startSize=8;endSize=8;curved=1;entryX=0.5;entryY=1;entryDx=0;entryDy=0;exitX=0.5;exitY=0;exitDx=0;exitDy=0;strokeColor=light-dark(#000000,#000000);fontStyle=1" parent="1" source="sn4AJc1EIGA8AgyFP-6u-74" target="sn4AJc1EIGA8AgyFP-6u-80" edge="1">
          <mxGeometry width="50" height="50" relative="1" as="geometry">
            <mxPoint x="480" y="260" as="sourcePoint" />
            <mxPoint x="526" y="150" as="targetPoint" />
          </mxGeometry>
        </mxCell>
        <mxCell id="sn4AJc1EIGA8AgyFP-6u-84" value="" style="endArrow=none;html=1;rounded=0;fontSize=12;startSize=8;endSize=8;curved=1;entryX=0.5;entryY=1;entryDx=0;entryDy=0;exitX=0.5;exitY=0;exitDx=0;exitDy=0;strokeColor=light-dark(#000000,#000000);fontStyle=1" parent="1" source="sn4AJc1EIGA8AgyFP-6u-74" target="sn4AJc1EIGA8AgyFP-6u-81" edge="1">
          <mxGeometry width="50" height="50" relative="1" as="geometry">
            <mxPoint x="490" y="200" as="sourcePoint" />
            <mxPoint x="536" y="160" as="targetPoint" />
          </mxGeometry>
        </mxCell>
        <mxCell id="sn4AJc1EIGA8AgyFP-6u-85" value="hace" style="rhombus;whiteSpace=wrap;html=1;fillColor=light-dark(#FFFF99,#FFFF99);fontColor=light-dark(#000000,#000000);strokeColor=light-dark(#000000,#000000);fontStyle=1" parent="1" vertex="1">
          <mxGeometry x="1290.25" y="725" width="130" height="80" as="geometry" />
        </mxCell>
        <mxCell id="sn4AJc1EIGA8AgyFP-6u-86" value="" style="endArrow=none;html=1;rounded=0;fontSize=12;startSize=8;endSize=8;curved=1;entryX=0.5;entryY=0;entryDx=0;entryDy=0;exitX=0.5;exitY=1;exitDx=0;exitDy=0;strokeColor=light-dark(#000000,#000000);fontStyle=1" parent="1" source="sn4AJc1EIGA8AgyFP-6u-85" target="sn4AJc1EIGA8AgyFP-6u-30" edge="1">
          <mxGeometry width="50" height="50" relative="1" as="geometry">
            <mxPoint x="1041.5" y="985" as="sourcePoint" />
            <mxPoint x="747.25" y="785" as="targetPoint" />
          </mxGeometry>
        </mxCell>
        <mxCell id="sn4AJc1EIGA8AgyFP-6u-87" value="0:N" style="edgeLabel;html=1;align=center;verticalAlign=middle;resizable=0;points=[];fontSize=12;fontStyle=1" parent="sn4AJc1EIGA8AgyFP-6u-86" vertex="1" connectable="0">
          <mxGeometry x="0.8845" relative="1" as="geometry">
            <mxPoint x="25" y="-377" as="offset" />
          </mxGeometry>
        </mxCell>
        <mxCell id="sn4AJc1EIGA8AgyFP-6u-88" value="" style="endArrow=none;html=1;rounded=0;fontSize=12;startSize=8;endSize=8;curved=1;entryX=0.5;entryY=0;entryDx=0;entryDy=0;exitX=0.5;exitY=1;exitDx=0;exitDy=0;strokeColor=light-dark(#000000,#000000);fontStyle=1" parent="1" source="sn4AJc1EIGA8AgyFP-6u-24" target="sn4AJc1EIGA8AgyFP-6u-85" edge="1">
          <mxGeometry width="50" height="50" relative="1" as="geometry">
            <mxPoint x="1131.25" y="505" as="sourcePoint" />
            <mxPoint x="1402.25" y="515" as="targetPoint" />
          </mxGeometry>
        </mxCell>
        <mxCell id="sn4AJc1EIGA8AgyFP-6u-89" value="1:1" style="edgeLabel;html=1;align=center;verticalAlign=middle;resizable=0;points=[];fontSize=12;fontStyle=1" parent="sn4AJc1EIGA8AgyFP-6u-88" vertex="1" connectable="0">
          <mxGeometry x="-0.8169" y="1" relative="1" as="geometry">
            <mxPoint x="24" y="364" as="offset" />
          </mxGeometry>
        </mxCell>
        <mxCell id="sn4AJc1EIGA8AgyFP-6u-90" value="gestiona" style="rhombus;whiteSpace=wrap;html=1;fillColor=light-dark(#FFFF99,#FFFF99);fontColor=light-dark(#000000,#000000);strokeColor=light-dark(#000000,#000000);fontStyle=1" parent="1" vertex="1">
          <mxGeometry x="1290.25" y="305" width="130" height="80" as="geometry" />
        </mxCell>
        <mxCell id="sn4AJc1EIGA8AgyFP-6u-91" value="" style="endArrow=none;html=1;rounded=0;fontSize=12;startSize=8;endSize=8;curved=1;entryX=0.5;entryY=1;entryDx=0;entryDy=0;exitX=0.5;exitY=0;exitDx=0;exitDy=0;strokeColor=light-dark(#000000,#000000);fontStyle=1" parent="1" source="sn4AJc1EIGA8AgyFP-6u-90" target="sn4AJc1EIGA8AgyFP-6u-12" edge="1">
          <mxGeometry width="50" height="50" relative="1" as="geometry">
            <mxPoint x="391.25" y="675" as="sourcePoint" />
            <mxPoint x="441.25" y="595" as="targetPoint" />
          </mxGeometry>
        </mxCell>
        <mxCell id="sn4AJc1EIGA8AgyFP-6u-92" value="0:N" style="edgeLabel;html=1;align=center;verticalAlign=middle;resizable=0;points=[];fontSize=12;fontStyle=1" parent="sn4AJc1EIGA8AgyFP-6u-91" vertex="1" connectable="0">
          <mxGeometry x="0.6182" y="-1" relative="1" as="geometry">
            <mxPoint x="9" y="264" as="offset" />
          </mxGeometry>
        </mxCell>
        <mxCell id="sn4AJc1EIGA8AgyFP-6u-93" value="" style="endArrow=none;html=1;rounded=0;fontSize=12;startSize=8;endSize=8;curved=1;exitX=0.5;exitY=0;exitDx=0;exitDy=0;entryX=0.5;entryY=1;entryDx=0;entryDy=0;strokeColor=light-dark(#000000,#000000);fontStyle=1" parent="1" source="sn4AJc1EIGA8AgyFP-6u-24" target="sn4AJc1EIGA8AgyFP-6u-90" edge="1">
          <mxGeometry width="50" height="50" relative="1" as="geometry">
            <mxPoint x="1361.25" y="355" as="sourcePoint" />
            <mxPoint x="1471.25" y="405" as="targetPoint" />
          </mxGeometry>
        </mxCell>
        <mxCell id="sn4AJc1EIGA8AgyFP-6u-94" value="1:1" style="edgeLabel;html=1;align=center;verticalAlign=middle;resizable=0;points=[];fontSize=12;fontStyle=1" parent="sn4AJc1EIGA8AgyFP-6u-93" vertex="1" connectable="0">
          <mxGeometry x="-0.5455" y="-5" relative="1" as="geometry">
            <mxPoint x="-5" y="-256" as="offset" />
          </mxGeometry>
        </mxCell>
        <mxCell id="sn4AJc1EIGA8AgyFP-6u-95" value="" style="endArrow=none;html=1;rounded=0;fontSize=12;startSize=8;endSize=8;curved=1;exitX=0.5;exitY=1;exitDx=0;exitDy=0;entryX=0.5;entryY=0;entryDx=0;entryDy=0;strokeColor=light-dark(#000000,#000000);fontStyle=1" parent="1" source="sn4AJc1EIGA8AgyFP-6u-18" target="sn4AJc1EIGA8AgyFP-6u-159" edge="1">
          <mxGeometry width="50" height="50" relative="1" as="geometry">
            <mxPoint x="332.5" y="155" as="sourcePoint" />
            <mxPoint x="62.5" y="25" as="targetPoint" />
          </mxGeometry>
        </mxCell>
        <mxCell id="sn4AJc1EIGA8AgyFP-6u-98" value="" style="endArrow=none;html=1;rounded=0;fontSize=12;startSize=8;endSize=8;curved=1;exitX=0.5;exitY=0;exitDx=0;exitDy=0;entryX=0.5;entryY=1;entryDx=0;entryDy=0;strokeColor=light-dark(#000000,#000000);fontStyle=1" parent="1" source="sn4AJc1EIGA8AgyFP-6u-159" target="sn4AJc1EIGA8AgyFP-6u-22" edge="1">
          <mxGeometry width="50" height="50" relative="1" as="geometry">
            <mxPoint x="62.5" y="25" as="sourcePoint" />
            <mxPoint x="87.5" y="45" as="targetPoint" />
          </mxGeometry>
        </mxCell>
        <mxCell id="sn4AJc1EIGA8AgyFP-6u-99" value="" style="endArrow=none;html=1;rounded=0;fontSize=12;startSize=8;endSize=8;curved=1;exitX=0.5;exitY=1;exitDx=0;exitDy=0;entryX=0.5;entryY=0;entryDx=0;entryDy=0;strokeColor=light-dark(#000000,#000000);fontStyle=1" parent="1" source="sn4AJc1EIGA8AgyFP-6u-19" target="sn4AJc1EIGA8AgyFP-6u-159" edge="1">
          <mxGeometry width="50" height="50" relative="1" as="geometry">
            <mxPoint x="42.5" y="-5" as="sourcePoint" />
            <mxPoint x="62.5" y="25" as="targetPoint" />
          </mxGeometry>
        </mxCell>
        <mxCell id="sn4AJc1EIGA8AgyFP-6u-100" value="" style="endArrow=none;html=1;rounded=0;fontSize=12;startSize=8;endSize=8;curved=1;entryX=0.5;entryY=1;entryDx=0;entryDy=0;exitX=0.5;exitY=0;exitDx=0;exitDy=0;strokeColor=light-dark(#000000,#000000);fontStyle=1" parent="1" source="sn4AJc1EIGA8AgyFP-6u-159" target="sn4AJc1EIGA8AgyFP-6u-23" edge="1">
          <mxGeometry width="50" height="50" relative="1" as="geometry">
            <mxPoint x="62.5" y="25" as="sourcePoint" />
            <mxPoint x="382.5" y="105" as="targetPoint" />
          </mxGeometry>
        </mxCell>
        <mxCell id="sn4AJc1EIGA8AgyFP-6u-101" value="" style="endArrow=none;html=1;rounded=0;fontSize=12;startSize=8;endSize=8;curved=1;entryX=0.5;entryY=1;entryDx=0;entryDy=0;exitX=0.5;exitY=0;exitDx=0;exitDy=0;strokeColor=light-dark(#000000,#000000);fontStyle=1" parent="1" source="sn4AJc1EIGA8AgyFP-6u-37" target="sn4AJc1EIGA8AgyFP-6u-36" edge="1">
          <mxGeometry width="50" height="50" relative="1" as="geometry">
            <mxPoint x="230" y="710" as="sourcePoint" />
            <mxPoint x="280" y="660" as="targetPoint" />
          </mxGeometry>
        </mxCell>
        <mxCell id="sn4AJc1EIGA8AgyFP-6u-102" value="" style="endArrow=none;html=1;rounded=0;fontSize=12;startSize=8;endSize=8;curved=1;entryX=0.5;entryY=1;entryDx=0;entryDy=0;exitX=0.5;exitY=0;exitDx=0;exitDy=0;strokeColor=light-dark(#000000,#000000);fontStyle=1" parent="1" source="sn4AJc1EIGA8AgyFP-6u-38" target="sn4AJc1EIGA8AgyFP-6u-36" edge="1">
          <mxGeometry width="50" height="50" relative="1" as="geometry">
            <mxPoint x="-90" y="641" as="sourcePoint" />
            <mxPoint x="90" y="600" as="targetPoint" />
          </mxGeometry>
        </mxCell>
        <mxCell id="sn4AJc1EIGA8AgyFP-6u-103" value="" style="endArrow=none;html=1;rounded=0;fontSize=12;startSize=8;endSize=8;curved=1;entryX=0.5;entryY=1;entryDx=0;entryDy=0;exitX=0.5;exitY=0;exitDx=0;exitDy=0;strokeColor=light-dark(#000000,#000000);fontStyle=1" parent="1" source="sn4AJc1EIGA8AgyFP-6u-39" target="sn4AJc1EIGA8AgyFP-6u-36" edge="1">
          <mxGeometry width="50" height="50" relative="1" as="geometry">
            <mxPoint x="80" y="771" as="sourcePoint" />
            <mxPoint x="260" y="730" as="targetPoint" />
          </mxGeometry>
        </mxCell>
        <mxCell id="sn4AJc1EIGA8AgyFP-6u-104" value="" style="endArrow=none;html=1;rounded=0;fontSize=12;startSize=8;endSize=8;curved=1;entryX=0.5;entryY=1;entryDx=0;entryDy=0;exitX=0.5;exitY=0;exitDx=0;exitDy=0;strokeColor=light-dark(#000000,#000000);fontStyle=1" parent="1" source="sn4AJc1EIGA8AgyFP-6u-183" target="sn4AJc1EIGA8AgyFP-6u-36" edge="1">
          <mxGeometry width="50" height="50" relative="1" as="geometry">
            <mxPoint x="145" y="610" as="sourcePoint" />
            <mxPoint x="290" y="580" as="targetPoint" />
          </mxGeometry>
        </mxCell>
        <mxCell id="sn4AJc1EIGA8AgyFP-6u-105" value="" style="endArrow=none;html=1;rounded=0;fontSize=12;startSize=8;endSize=8;curved=1;entryX=0.5;entryY=1;entryDx=0;entryDy=0;exitX=0.5;exitY=0;exitDx=0;exitDy=0;strokeColor=light-dark(#000000,#000000);fontStyle=1" parent="1" source="sn4AJc1EIGA8AgyFP-6u-47" target="sn4AJc1EIGA8AgyFP-6u-36" edge="1">
          <mxGeometry width="50" height="50" relative="1" as="geometry">
            <mxPoint x="210" y="611" as="sourcePoint" />
            <mxPoint x="390" y="570" as="targetPoint" />
          </mxGeometry>
        </mxCell>
        <mxCell id="sn4AJc1EIGA8AgyFP-6u-106" value="" style="endArrow=none;html=1;rounded=0;fontSize=12;startSize=8;endSize=8;curved=1;entryX=0.5;entryY=1;entryDx=0;entryDy=0;exitX=0.5;exitY=0;exitDx=0;exitDy=0;strokeColor=light-dark(#000000,#000000);fontStyle=1" parent="1" source="sn4AJc1EIGA8AgyFP-6u-7" edge="1">
          <mxGeometry width="50" height="50" relative="1" as="geometry">
            <mxPoint x="229" y="370" as="sourcePoint" />
            <mxPoint x="413" y="350" as="targetPoint" />
          </mxGeometry>
        </mxCell>
        <mxCell id="sn4AJc1EIGA8AgyFP-6u-108" value="" style="endArrow=none;html=1;rounded=0;fontSize=12;startSize=8;endSize=8;curved=1;exitX=0.5;exitY=0;exitDx=0;exitDy=0;entryX=0.5;entryY=1;entryDx=0;entryDy=0;strokeColor=light-dark(#000000,#000000);fontStyle=1" parent="1" source="sn4AJc1EIGA8AgyFP-6u-9" edge="1">
          <mxGeometry width="50" height="50" relative="1" as="geometry">
            <mxPoint x="379" y="420" as="sourcePoint" />
            <mxPoint x="413" y="350" as="targetPoint" />
          </mxGeometry>
        </mxCell>
        <mxCell id="sn4AJc1EIGA8AgyFP-6u-109" value="" style="endArrow=none;html=1;rounded=0;fontSize=12;startSize=8;endSize=8;curved=1;entryX=0.5;entryY=1;entryDx=0;entryDy=0;exitX=0.5;exitY=0;exitDx=0;exitDy=0;strokeColor=light-dark(#000000,#000000);fontStyle=1" parent="1" source="sn4AJc1EIGA8AgyFP-6u-10" edge="1">
          <mxGeometry width="50" height="50" relative="1" as="geometry">
            <mxPoint x="469" y="430" as="sourcePoint" />
            <mxPoint x="413" y="350" as="targetPoint" />
          </mxGeometry>
        </mxCell>
        <mxCell id="sn4AJc1EIGA8AgyFP-6u-110" value="" style="endArrow=none;html=1;rounded=0;fontSize=12;startSize=8;endSize=8;curved=1;entryX=0.5;entryY=0;entryDx=0;entryDy=0;exitX=0.5;exitY=1;exitDx=0;exitDy=0;strokeColor=light-dark(#000000,#000000);fontStyle=1" parent="1" target="sn4AJc1EIGA8AgyFP-6u-11" edge="1">
          <mxGeometry width="50" height="50" relative="1" as="geometry">
            <mxPoint x="413" y="350" as="sourcePoint" />
            <mxPoint x="708" y="370" as="targetPoint" />
          </mxGeometry>
        </mxCell>
        <mxCell id="sn4AJc1EIGA8AgyFP-6u-111" value="" style="endArrow=none;html=1;rounded=0;fontSize=12;startSize=8;endSize=8;curved=1;entryX=0.5;entryY=1;entryDx=0;entryDy=0;exitX=0.5;exitY=0;exitDx=0;exitDy=0;strokeColor=light-dark(#000000,#000000);fontStyle=1" parent="1" source="sn4AJc1EIGA8AgyFP-6u-2" target="sn4AJc1EIGA8AgyFP-6u-1" edge="1">
          <mxGeometry width="50" height="50" relative="1" as="geometry">
            <mxPoint x="750" y="370" as="sourcePoint" />
            <mxPoint x="800" y="320" as="targetPoint" />
          </mxGeometry>
        </mxCell>
        <mxCell id="sn4AJc1EIGA8AgyFP-6u-112" value="" style="endArrow=none;html=1;rounded=0;fontSize=12;startSize=8;endSize=8;curved=1;exitX=0.5;exitY=0;exitDx=0;exitDy=0;entryX=0.5;entryY=1;entryDx=0;entryDy=0;strokeColor=light-dark(#000000,#000000);fontStyle=1" parent="1" source="sn4AJc1EIGA8AgyFP-6u-3" target="sn4AJc1EIGA8AgyFP-6u-1" edge="1">
          <mxGeometry width="50" height="50" relative="1" as="geometry">
            <mxPoint x="930" y="420" as="sourcePoint" />
            <mxPoint x="950" y="350" as="targetPoint" />
          </mxGeometry>
        </mxCell>
        <mxCell id="sn4AJc1EIGA8AgyFP-6u-113" value="" style="endArrow=none;html=1;rounded=0;fontSize=12;startSize=8;endSize=8;curved=1;entryX=0.5;entryY=1;entryDx=0;entryDy=0;strokeColor=light-dark(#000000,#000000);fontStyle=1" parent="1" source="sn4AJc1EIGA8AgyFP-6u-4" target="sn4AJc1EIGA8AgyFP-6u-1" edge="1">
          <mxGeometry width="50" height="50" relative="1" as="geometry">
            <mxPoint x="1040" y="410" as="sourcePoint" />
            <mxPoint x="1219" y="370" as="targetPoint" />
          </mxGeometry>
        </mxCell>
        <mxCell id="sn4AJc1EIGA8AgyFP-6u-114" value="" style="endArrow=none;html=1;rounded=0;fontSize=12;startSize=8;endSize=8;curved=1;entryX=0.5;entryY=1;entryDx=0;entryDy=0;exitX=0.5;exitY=0;exitDx=0;exitDy=0;strokeColor=light-dark(#000000,#000000);fontStyle=1" parent="1" source="sn4AJc1EIGA8AgyFP-6u-5" target="sn4AJc1EIGA8AgyFP-6u-1" edge="1">
          <mxGeometry width="50" height="50" relative="1" as="geometry">
            <mxPoint x="1000" y="410" as="sourcePoint" />
            <mxPoint x="1179" y="370" as="targetPoint" />
          </mxGeometry>
        </mxCell>
        <mxCell id="sn4AJc1EIGA8AgyFP-6u-115" value="" style="endArrow=none;html=1;rounded=0;fontSize=12;startSize=8;endSize=8;curved=1;entryX=0.5;entryY=0;entryDx=0;entryDy=0;exitX=0.5;exitY=1;exitDx=0;exitDy=0;strokeColor=light-dark(#000000,#000000);fontStyle=1" parent="1" source="sn4AJc1EIGA8AgyFP-6u-1" target="sn4AJc1EIGA8AgyFP-6u-6" edge="1">
          <mxGeometry width="50" height="50" relative="1" as="geometry">
            <mxPoint x="1120" y="350" as="sourcePoint" />
            <mxPoint x="1299" y="310" as="targetPoint" />
          </mxGeometry>
        </mxCell>
        <mxCell id="sn4AJc1EIGA8AgyFP-6u-116" value="" style="endArrow=none;html=1;rounded=0;fontSize=12;startSize=8;endSize=8;curved=1;entryX=0;entryY=0.5;entryDx=0;entryDy=0;exitX=1;exitY=0.5;exitDx=0;exitDy=0;strokeColor=light-dark(#000000,#000000);fontStyle=1" parent="1" source="sn4AJc1EIGA8AgyFP-6u-24" target="sn4AJc1EIGA8AgyFP-6u-25" edge="1">
          <mxGeometry width="50" height="50" relative="1" as="geometry">
            <mxPoint x="1741.25" y="615" as="sourcePoint" />
            <mxPoint x="1920.25" y="575" as="targetPoint" />
          </mxGeometry>
        </mxCell>
        <mxCell id="sn4AJc1EIGA8AgyFP-6u-119" value="" style="endArrow=none;html=1;rounded=0;fontSize=12;startSize=8;endSize=8;curved=1;entryX=0;entryY=0.5;entryDx=0;entryDy=0;exitX=1;exitY=0.5;exitDx=0;exitDy=0;strokeColor=light-dark(#000000,#000000);fontStyle=1" parent="1" source="sn4AJc1EIGA8AgyFP-6u-24" target="sn4AJc1EIGA8AgyFP-6u-28" edge="1">
          <mxGeometry width="50" height="50" relative="1" as="geometry">
            <mxPoint x="1461.25" y="625" as="sourcePoint" />
            <mxPoint x="1640.25" y="585" as="targetPoint" />
          </mxGeometry>
        </mxCell>
        <mxCell id="sn4AJc1EIGA8AgyFP-6u-120" value="" style="endArrow=none;html=1;rounded=0;fontSize=12;startSize=8;endSize=8;curved=1;entryX=0;entryY=0.5;entryDx=0;entryDy=0;exitX=1;exitY=0.5;exitDx=0;exitDy=0;strokeColor=light-dark(#000000,#000000);fontStyle=1" parent="1" source="sn4AJc1EIGA8AgyFP-6u-24" target="sn4AJc1EIGA8AgyFP-6u-26" edge="1">
          <mxGeometry width="50" height="50" relative="1" as="geometry">
            <mxPoint x="1461.25" y="675" as="sourcePoint" />
            <mxPoint x="1640.25" y="635" as="targetPoint" />
          </mxGeometry>
        </mxCell>
        <mxCell id="sn4AJc1EIGA8AgyFP-6u-121" value="" style="endArrow=none;html=1;rounded=0;fontSize=12;startSize=8;endSize=8;curved=1;entryX=0.5;entryY=1;entryDx=0;entryDy=0;exitX=0.5;exitY=0;exitDx=0;exitDy=0;strokeColor=light-dark(#000000,#000000);fontStyle=1" parent="1" source="sn4AJc1EIGA8AgyFP-6u-31" target="sn4AJc1EIGA8AgyFP-6u-30" edge="1">
          <mxGeometry width="50" height="50" relative="1" as="geometry">
            <mxPoint x="1040" y="1055" as="sourcePoint" />
            <mxPoint x="1491.25" y="945" as="targetPoint" />
          </mxGeometry>
        </mxCell>
        <mxCell id="sn4AJc1EIGA8AgyFP-6u-122" value="" style="endArrow=none;html=1;rounded=0;fontSize=12;startSize=8;endSize=8;curved=1;entryX=0.5;entryY=1;entryDx=0;entryDy=0;exitX=0.5;exitY=0;exitDx=0;exitDy=0;strokeColor=light-dark(#000000,#000000);fontStyle=1" parent="1" source="sn4AJc1EIGA8AgyFP-6u-35" target="sn4AJc1EIGA8AgyFP-6u-30" edge="1">
          <mxGeometry width="50" height="50" relative="1" as="geometry">
            <mxPoint x="1051.25" y="1025" as="sourcePoint" />
            <mxPoint x="1230.25" y="985" as="targetPoint" />
          </mxGeometry>
        </mxCell>
        <mxCell id="sn4AJc1EIGA8AgyFP-6u-123" value="" style="endArrow=none;html=1;rounded=0;fontSize=12;startSize=8;endSize=8;curved=1;entryX=0.5;entryY=1;entryDx=0;entryDy=0;exitX=0.5;exitY=0;exitDx=0;exitDy=0;strokeColor=light-dark(#000000,#000000);fontStyle=1" parent="1" source="sn4AJc1EIGA8AgyFP-6u-49" target="sn4AJc1EIGA8AgyFP-6u-30" edge="1">
          <mxGeometry width="50" height="50" relative="1" as="geometry">
            <mxPoint x="1051.25" y="1025" as="sourcePoint" />
            <mxPoint x="1230.25" y="985" as="targetPoint" />
          </mxGeometry>
        </mxCell>
        <mxCell id="sn4AJc1EIGA8AgyFP-6u-124" value="" style="endArrow=none;html=1;rounded=0;fontSize=12;startSize=8;endSize=8;curved=1;entryX=0.5;entryY=1;entryDx=0;entryDy=0;exitX=0.5;exitY=0;exitDx=0;exitDy=0;strokeColor=light-dark(#000000,#000000);fontStyle=1" parent="1" source="sn4AJc1EIGA8AgyFP-6u-177" target="sn4AJc1EIGA8AgyFP-6u-30" edge="1">
          <mxGeometry width="50" height="50" relative="1" as="geometry">
            <mxPoint x="1310.5" y="1055" as="sourcePoint" />
            <mxPoint x="1230.25" y="985" as="targetPoint" />
          </mxGeometry>
        </mxCell>
        <mxCell id="sn4AJc1EIGA8AgyFP-6u-125" value="" style="endArrow=none;html=1;rounded=0;fontSize=12;startSize=8;endSize=8;curved=1;entryX=0.5;entryY=1;entryDx=0;entryDy=0;exitX=0.5;exitY=0;exitDx=0;exitDy=0;strokeColor=light-dark(#000000,#000000);fontStyle=1" parent="1" source="sn4AJc1EIGA8AgyFP-6u-178" target="sn4AJc1EIGA8AgyFP-6u-30" edge="1">
          <mxGeometry width="50" height="50" relative="1" as="geometry">
            <mxPoint x="1400.5" y="1055" as="sourcePoint" />
            <mxPoint x="1230.25" y="985" as="targetPoint" />
          </mxGeometry>
        </mxCell>
        <mxCell id="sn4AJc1EIGA8AgyFP-6u-126" value="" style="endArrow=none;html=1;rounded=0;fontSize=12;startSize=8;endSize=8;curved=1;entryX=0.5;entryY=1;entryDx=0;entryDy=0;exitX=0.5;exitY=0;exitDx=0;exitDy=0;strokeColor=light-dark(#000000,#000000);fontStyle=1" parent="1" source="sn4AJc1EIGA8AgyFP-6u-48" target="sn4AJc1EIGA8AgyFP-6u-30" edge="1">
          <mxGeometry width="50" height="50" relative="1" as="geometry">
            <mxPoint x="1051.25" y="1025" as="sourcePoint" />
            <mxPoint x="1230.25" y="985" as="targetPoint" />
          </mxGeometry>
        </mxCell>
        <mxCell id="sn4AJc1EIGA8AgyFP-6u-127" value="" style="endArrow=none;html=1;rounded=0;fontSize=12;startSize=8;endSize=8;curved=1;entryX=0.5;entryY=1;entryDx=0;entryDy=0;exitX=0.5;exitY=0;exitDx=0;exitDy=0;strokeColor=light-dark(#000000,#000000);fontStyle=1" parent="1" source="sn4AJc1EIGA8AgyFP-6u-33" target="sn4AJc1EIGA8AgyFP-6u-30" edge="1">
          <mxGeometry width="50" height="50" relative="1" as="geometry">
            <mxPoint x="1051.25" y="1025" as="sourcePoint" />
            <mxPoint x="1230.25" y="985" as="targetPoint" />
          </mxGeometry>
        </mxCell>
        <mxCell id="sn4AJc1EIGA8AgyFP-6u-128" value="" style="endArrow=none;html=1;rounded=0;fontSize=12;startSize=8;endSize=8;curved=1;entryX=0.5;entryY=0;entryDx=0;entryDy=0;exitX=0.5;exitY=1;exitDx=0;exitDy=0;strokeColor=light-dark(#000000,#000000);fontStyle=1" parent="1" source="sn4AJc1EIGA8AgyFP-6u-30" target="sn4AJc1EIGA8AgyFP-6u-143" edge="1">
          <mxGeometry width="50" height="50" relative="1" as="geometry">
            <mxPoint x="1611.25" y="1025" as="sourcePoint" />
            <mxPoint x="1670.5" y="1055" as="targetPoint" />
          </mxGeometry>
        </mxCell>
        <mxCell id="sn4AJc1EIGA8AgyFP-6u-129" value="" style="endArrow=none;html=1;rounded=0;fontSize=12;startSize=8;endSize=8;curved=1;exitX=0.5;exitY=1;exitDx=0;exitDy=0;entryX=0.5;entryY=0;entryDx=0;entryDy=0;strokeColor=light-dark(#000000,#000000);fontStyle=1" parent="1" source="sn4AJc1EIGA8AgyFP-6u-13" target="sn4AJc1EIGA8AgyFP-6u-12" edge="1">
          <mxGeometry width="50" height="50" relative="1" as="geometry">
            <mxPoint x="1511.25" y="265" as="sourcePoint" />
            <mxPoint x="1361.25" y="135" as="targetPoint" />
          </mxGeometry>
        </mxCell>
        <mxCell id="sn4AJc1EIGA8AgyFP-6u-130" value="" style="endArrow=none;html=1;rounded=0;fontSize=12;startSize=8;endSize=8;curved=1;entryX=0.5;entryY=0;entryDx=0;entryDy=0;exitX=0.5;exitY=1;exitDx=0;exitDy=0;strokeColor=light-dark(#000000,#000000);fontStyle=1" parent="1" source="sn4AJc1EIGA8AgyFP-6u-15" target="sn4AJc1EIGA8AgyFP-6u-12" edge="1">
          <mxGeometry width="50" height="50" relative="1" as="geometry">
            <mxPoint x="1541.25" y="255" as="sourcePoint" />
            <mxPoint x="1720.25" y="215" as="targetPoint" />
          </mxGeometry>
        </mxCell>
        <mxCell id="sn4AJc1EIGA8AgyFP-6u-131" value="" style="endArrow=none;html=1;rounded=0;fontSize=12;startSize=8;endSize=8;curved=1;entryX=0.5;entryY=0;entryDx=0;entryDy=0;exitX=0.5;exitY=1;exitDx=0;exitDy=0;strokeColor=light-dark(#000000,#000000);fontStyle=1" parent="1" source="sn4AJc1EIGA8AgyFP-6u-14" target="sn4AJc1EIGA8AgyFP-6u-12" edge="1">
          <mxGeometry width="50" height="50" relative="1" as="geometry">
            <mxPoint x="1541.25" y="245" as="sourcePoint" />
            <mxPoint x="1720.25" y="205" as="targetPoint" />
          </mxGeometry>
        </mxCell>
        <mxCell id="sn4AJc1EIGA8AgyFP-6u-132" value="" style="endArrow=none;html=1;rounded=0;fontSize=12;startSize=8;endSize=8;curved=1;entryX=0.5;entryY=1;entryDx=0;entryDy=0;exitX=0.5;exitY=0;exitDx=0;exitDy=0;strokeColor=light-dark(#000000,#000000);fontStyle=1" parent="1" source="sn4AJc1EIGA8AgyFP-6u-12" target="sn4AJc1EIGA8AgyFP-6u-16" edge="1">
          <mxGeometry width="50" height="50" relative="1" as="geometry">
            <mxPoint x="1541.25" y="235" as="sourcePoint" />
            <mxPoint x="1720.25" y="195" as="targetPoint" />
          </mxGeometry>
        </mxCell>
        <mxCell id="sn4AJc1EIGA8AgyFP-6u-133" value="" style="endArrow=none;html=1;rounded=0;fontSize=12;startSize=8;endSize=8;curved=1;entryX=0.5;entryY=1;entryDx=0;entryDy=0;exitX=0.5;exitY=0;exitDx=0;exitDy=0;strokeColor=light-dark(#000000,#000000);fontStyle=1" parent="1" source="sn4AJc1EIGA8AgyFP-6u-12" target="sn4AJc1EIGA8AgyFP-6u-17" edge="1">
          <mxGeometry width="50" height="50" relative="1" as="geometry">
            <mxPoint x="1571.25" y="255" as="sourcePoint" />
            <mxPoint x="1750.25" y="215" as="targetPoint" />
          </mxGeometry>
        </mxCell>
        <mxCell id="sn4AJc1EIGA8AgyFP-6u-134" value="" style="endArrow=none;html=1;rounded=0;fontSize=12;startSize=8;endSize=8;curved=1;entryX=0.5;entryY=1;entryDx=0;entryDy=0;exitX=0.5;exitY=0;exitDx=0;exitDy=0;strokeColor=light-dark(#000000,#000000);fontStyle=1" parent="1" source="sn4AJc1EIGA8AgyFP-6u-59" edge="1">
          <mxGeometry width="50" height="50" relative="1" as="geometry">
            <mxPoint x="1901.25" y="605" as="sourcePoint" />
            <mxPoint x="1836.25" y="245" as="targetPoint" />
          </mxGeometry>
        </mxCell>
        <mxCell id="sn4AJc1EIGA8AgyFP-6u-136" value="" style="endArrow=none;html=1;rounded=0;fontSize=12;startSize=8;endSize=8;curved=1;entryX=0.5;entryY=1;entryDx=0;entryDy=0;exitX=0.5;exitY=0;exitDx=0;exitDy=0;strokeColor=light-dark(#000000,#000000);fontStyle=1" parent="1" source="sn4AJc1EIGA8AgyFP-6u-60" edge="1">
          <mxGeometry width="50" height="50" relative="1" as="geometry">
            <mxPoint x="1831.25" y="305" as="sourcePoint" />
            <mxPoint x="1836.25" y="245" as="targetPoint" />
          </mxGeometry>
        </mxCell>
        <mxCell id="sn4AJc1EIGA8AgyFP-6u-137" value="" style="endArrow=none;html=1;rounded=0;fontSize=12;startSize=8;endSize=8;curved=1;entryX=0.5;entryY=1;entryDx=0;entryDy=0;exitX=0.5;exitY=0;exitDx=0;exitDy=0;strokeColor=light-dark(#000000,#000000);fontStyle=1" parent="1" source="sn4AJc1EIGA8AgyFP-6u-62" edge="1">
          <mxGeometry width="50" height="50" relative="1" as="geometry">
            <mxPoint x="2021.25" y="285" as="sourcePoint" />
            <mxPoint x="1836.25" y="245" as="targetPoint" />
          </mxGeometry>
        </mxCell>
        <mxCell id="sn4AJc1EIGA8AgyFP-6u-138" value="" style="endArrow=none;html=1;rounded=0;fontSize=12;startSize=8;endSize=8;curved=1;entryX=0.5;entryY=1;entryDx=0;entryDy=0;exitX=0.5;exitY=0;exitDx=0;exitDy=0;strokeColor=light-dark(#000000,#000000);fontStyle=1" parent="1" source="sn4AJc1EIGA8AgyFP-6u-63" edge="1">
          <mxGeometry width="50" height="50" relative="1" as="geometry">
            <mxPoint x="2031.25" y="285" as="sourcePoint" />
            <mxPoint x="1836.25" y="245" as="targetPoint" />
          </mxGeometry>
        </mxCell>
        <mxCell id="sn4AJc1EIGA8AgyFP-6u-139" value="" style="endArrow=none;html=1;rounded=0;fontSize=12;startSize=8;endSize=8;curved=1;entryX=0.5;entryY=0;entryDx=0;entryDy=0;strokeColor=light-dark(#000000,#000000);exitX=1;exitY=1;exitDx=0;exitDy=0;fontStyle=1" parent="1" source="sn4AJc1EIGA8AgyFP-6u-141" target="sn4AJc1EIGA8AgyFP-6u-19" edge="1">
          <mxGeometry width="50" height="50" relative="1" as="geometry">
            <mxPoint x="65" y="-165" as="sourcePoint" />
            <mxPoint x="450" y="-15" as="targetPoint" />
          </mxGeometry>
        </mxCell>
        <mxCell id="sn4AJc1EIGA8AgyFP-6u-140" value="" style="endArrow=none;html=1;rounded=0;fontSize=12;startSize=8;endSize=8;curved=1;exitX=0.5;exitY=0;exitDx=0;exitDy=0;strokeColor=light-dark(#000000,#000000);entryX=0;entryY=1;entryDx=0;entryDy=0;fontStyle=1" parent="1" source="sn4AJc1EIGA8AgyFP-6u-19" target="sn4AJc1EIGA8AgyFP-6u-142" edge="1">
          <mxGeometry width="50" height="50" relative="1" as="geometry">
            <mxPoint x="135" y="-115" as="sourcePoint" />
            <mxPoint x="135" y="-165" as="targetPoint" />
          </mxGeometry>
        </mxCell>
        <mxCell id="sn4AJc1EIGA8AgyFP-6u-141" value="Fecha inicio" style="ellipse;whiteSpace=wrap;html=1;aspect=fixed;labelBackgroundColor=light-dark(#FF99FF,#FF99FF);fillColor=light-dark(#FF99FF,#FF99FF);fontColor=light-dark(#000000,#000000);gradientColor=none;strokeColor=light-dark(#000000,#000000);fontStyle=1" parent="1" vertex="1">
          <mxGeometry x="-5" y="-235" width="90" height="90" as="geometry" />
        </mxCell>
        <mxCell id="sn4AJc1EIGA8AgyFP-6u-142" value="Fecha fin" style="ellipse;whiteSpace=wrap;html=1;aspect=fixed;labelBackgroundColor=light-dark(#FF99FF,#FF99FF);fillColor=light-dark(#FF99FF,#FF99FF);fontColor=light-dark(#000000,#000000);gradientColor=none;strokeColor=light-dark(#000000,#000000);fontStyle=1" parent="1" vertex="1">
          <mxGeometry x="115" y="-235" width="90" height="90" as="geometry" />
        </mxCell>
        <mxCell id="sn4AJc1EIGA8AgyFP-6u-143" value="Bono mensual" style="ellipse;whiteSpace=wrap;html=1;align=center;dashed=1;fillColor=light-dark(#FF99FF,#FF99FF);fontColor=light-dark(#000000,#000000);strokeColor=light-dark(#000000,#000000);fontStyle=1" parent="1" vertex="1">
          <mxGeometry x="1625.5" y="1055" width="90" height="90" as="geometry" />
        </mxCell>
        <mxCell id="sn4AJc1EIGA8AgyFP-6u-144" value="asignado en" style="text;html=1;align=center;verticalAlign=middle;resizable=0;points=[];autosize=1;strokeColor=none;fillColor=none;fontStyle=1" parent="1" vertex="1">
          <mxGeometry x="169" y="290" width="90" height="30" as="geometry" />
        </mxCell>
        <mxCell id="sn4AJc1EIGA8AgyFP-6u-145" value="tiene asignada" style="text;html=1;align=center;verticalAlign=middle;resizable=0;points=[];autosize=1;strokeColor=none;fillColor=none;fontStyle=1" parent="1" vertex="1">
          <mxGeometry x="60" y="420" width="100" height="30" as="geometry" />
        </mxCell>
        <mxCell id="sn4AJc1EIGA8AgyFP-6u-146" value="gestionado por" style="text;html=1;align=center;verticalAlign=middle;resizable=0;points=[];autosize=1;strokeColor=none;fillColor=none;fontStyle=1" parent="1" vertex="1">
          <mxGeometry x="1260.5" y="245" width="100" height="30" as="geometry" />
        </mxCell>
        <mxCell id="sn4AJc1EIGA8AgyFP-6u-147" value="gestiona" style="text;html=1;align=center;verticalAlign=middle;resizable=0;points=[];autosize=1;strokeColor=none;fillColor=none;fontStyle=1" parent="1" vertex="1">
          <mxGeometry x="1290.5" y="420" width="70" height="30" as="geometry" />
        </mxCell>
        <mxCell id="sn4AJc1EIGA8AgyFP-6u-148" value="hecho por" style="text;html=1;align=center;verticalAlign=middle;resizable=0;points=[];autosize=1;strokeColor=none;fillColor=none;fontStyle=1" parent="1" vertex="1">
          <mxGeometry x="1285.5" y="843" width="80" height="30" as="geometry" />
        </mxCell>
        <mxCell id="sn4AJc1EIGA8AgyFP-6u-149" value="hace" style="text;html=1;align=center;verticalAlign=middle;resizable=0;points=[];autosize=1;strokeColor=none;fillColor=none;fontStyle=1" parent="1" vertex="1">
          <mxGeometry x="1310.5" y="630" width="50" height="30" as="geometry" />
        </mxCell>
        <mxCell id="sn4AJc1EIGA8AgyFP-6u-150" value="tiene" style="text;html=1;align=center;verticalAlign=middle;resizable=0;points=[];autosize=1;strokeColor=none;fillColor=none;fontStyle=1" parent="1" vertex="1">
          <mxGeometry x="525" y="288" width="50" height="30" as="geometry" />
        </mxCell>
        <mxCell id="sn4AJc1EIGA8AgyFP-6u-151" value="pertenece" style="text;html=1;align=center;verticalAlign=middle;resizable=0;points=[];autosize=1;strokeColor=none;fillColor=none;fontStyle=1" parent="1" vertex="1">
          <mxGeometry x="760" y="288" width="80" height="30" as="geometry" />
        </mxCell>
        <mxCell id="sn4AJc1EIGA8AgyFP-6u-152" value="asignado a" style="text;html=1;align=center;verticalAlign=middle;resizable=0;points=[];autosize=1;strokeColor=none;fillColor=none;fontStyle=1" parent="1" vertex="1">
          <mxGeometry x="414" y="230" width="80" height="30" as="geometry" />
        </mxCell>
        <mxCell id="sn4AJc1EIGA8AgyFP-6u-153" value="se le asigna" style="text;html=1;align=center;verticalAlign=middle;resizable=0;points=[];autosize=1;strokeColor=none;fillColor=none;fontStyle=1" parent="1" vertex="1">
          <mxGeometry x="710" y="150" width="90" height="30" as="geometry" />
        </mxCell>
        <mxCell id="sn4AJc1EIGA8AgyFP-6u-154" value="N:M" style="text;html=1;align=center;verticalAlign=middle;resizable=0;points=[];autosize=1;strokeColor=none;fillColor=none;fontStyle=1" parent="1" vertex="1">
          <mxGeometry x="-60" y="305" width="50" height="30" as="geometry" />
        </mxCell>
        <mxCell id="sn4AJc1EIGA8AgyFP-6u-155" value="N:M" style="text;html=1;align=center;verticalAlign=middle;resizable=0;points=[];autosize=1;strokeColor=none;fillColor=none;fontStyle=1" parent="1" vertex="1">
          <mxGeometry x="309" y="165" width="50" height="30" as="geometry" />
        </mxCell>
        <mxCell id="sn4AJc1EIGA8AgyFP-6u-156" value="N:M" style="text;html=1;align=center;verticalAlign=middle;resizable=0;points=[];autosize=1;strokeColor=none;fillColor=none;fontStyle=1" parent="1" vertex="1">
          <mxGeometry x="639" y="720" width="50" height="30" as="geometry" />
        </mxCell>
        <mxCell id="sn4AJc1EIGA8AgyFP-6u-157" value="1:N" style="text;html=1;align=center;verticalAlign=middle;resizable=0;points=[];autosize=1;strokeColor=none;fillColor=none;fontStyle=1" parent="1" vertex="1">
          <mxGeometry x="1245.25" y="330" width="40" height="30" as="geometry" />
        </mxCell>
        <mxCell id="sn4AJc1EIGA8AgyFP-6u-158" value="1:N" style="text;html=1;align=center;verticalAlign=middle;resizable=0;points=[];autosize=1;strokeColor=none;fillColor=none;fontStyle=1" parent="1" vertex="1">
          <mxGeometry x="1245.25" y="750" width="40" height="30" as="geometry" />
        </mxCell>
        <mxCell id="sn4AJc1EIGA8AgyFP-6u-159" value="Productividad zona" style="shape=process;whiteSpace=wrap;html=1;backgroundOutline=1;fillColor=light-dark(#FF99FF,#FF99FF);fontColor=light-dark(#000000,#000000);strokeColor=light-dark(#000000,#000000);fontStyle=1" parent="1" vertex="1">
          <mxGeometry x="-17.5" y="30" width="145" height="60" as="geometry" />
        </mxCell>
        <mxCell id="sn4AJc1EIGA8AgyFP-6u-160" value="&lt;div&gt;&lt;span&gt;ID&lt;/span&gt;&lt;/div&gt;&lt;div&gt;&lt;br&gt;&lt;/div&gt;se evalua" style="rhombus;whiteSpace=wrap;html=1;fillColor=light-dark(#FFFF99,#FFFF99);fontColor=light-dark(#000000,#000000);strokeColor=light-dark(#000000,#000000);fontStyle=1" parent="1" vertex="1">
          <mxGeometry x="169" y="130" width="130" height="80" as="geometry" />
        </mxCell>
        <mxCell id="sn4AJc1EIGA8AgyFP-6u-161" value="" style="endArrow=none;html=1;rounded=0;entryX=1;entryY=0.5;entryDx=0;entryDy=0;exitX=0;exitY=0;exitDx=0;exitDy=0;strokeColor=light-dark(#000000,#000000);fontStyle=1" parent="1" source="sn4AJc1EIGA8AgyFP-6u-160" target="sn4AJc1EIGA8AgyFP-6u-159" edge="1">
          <mxGeometry width="50" height="50" relative="1" as="geometry">
            <mxPoint x="110" y="140" as="sourcePoint" />
            <mxPoint x="160" y="90" as="targetPoint" />
          </mxGeometry>
        </mxCell>
        <mxCell id="sn4AJc1EIGA8AgyFP-6u-162" value="" style="endArrow=none;html=1;rounded=0;entryX=1;entryY=1;entryDx=0;entryDy=0;exitX=0.25;exitY=0;exitDx=0;exitDy=0;strokeColor=light-dark(#000000,#000000);fontStyle=1" parent="1" source="sn4AJc1EIGA8AgyFP-6u-41" target="sn4AJc1EIGA8AgyFP-6u-160" edge="1">
          <mxGeometry width="50" height="50" relative="1" as="geometry">
            <mxPoint x="110" y="140" as="sourcePoint" />
            <mxPoint x="160" y="90" as="targetPoint" />
          </mxGeometry>
        </mxCell>
        <mxCell id="sn4AJc1EIGA8AgyFP-6u-163" value="0:N" style="text;html=1;align=center;verticalAlign=middle;resizable=0;points=[];autosize=1;strokeColor=none;fillColor=none;fontStyle=1" parent="1" vertex="1">
          <mxGeometry x="130" y="38" width="40" height="30" as="geometry" />
        </mxCell>
        <mxCell id="sn4AJc1EIGA8AgyFP-6u-164" value="1:1" style="text;html=1;align=center;verticalAlign=middle;resizable=0;points=[];autosize=1;strokeColor=none;fillColor=none;fontStyle=1" parent="1" vertex="1">
          <mxGeometry x="320" y="258" width="40" height="30" as="geometry" />
        </mxCell>
        <mxCell id="sn4AJc1EIGA8AgyFP-6u-165" value="&lt;div&gt;&lt;span&gt;ID&lt;/span&gt;&lt;/div&gt;&lt;div&gt;&lt;br&gt;&lt;/div&gt;se evalua" style="rhombus;whiteSpace=wrap;html=1;fillColor=light-dark(#FFFF99,#FFFF99);fontColor=light-dark(#000000,#000000);strokeColor=light-dark(#000000,#000000);fontStyle=1" parent="1" vertex="1">
          <mxGeometry x="1535.5" y="135" width="130" height="80" as="geometry" />
        </mxCell>
        <mxCell id="sn4AJc1EIGA8AgyFP-6u-166" value="" style="endArrow=none;html=1;rounded=0;entryX=1;entryY=0.5;entryDx=0;entryDy=0;exitX=0;exitY=0;exitDx=0;exitDy=0;strokeColor=light-dark(#000000,#000000);fontStyle=1" parent="1" source="sn4AJc1EIGA8AgyFP-6u-165" target="sn4AJc1EIGA8AgyFP-6u-12" edge="1">
          <mxGeometry width="50" height="50" relative="1" as="geometry">
            <mxPoint x="1623.25" y="-165" as="sourcePoint" />
            <mxPoint x="1641.25" y="-245" as="targetPoint" />
          </mxGeometry>
        </mxCell>
        <mxCell id="sn4AJc1EIGA8AgyFP-6u-167" value="" style="endArrow=none;html=1;rounded=0;entryX=1;entryY=1;entryDx=0;entryDy=0;exitX=0;exitY=0.5;exitDx=0;exitDy=0;strokeColor=light-dark(#000000,#070707);fontStyle=1" parent="1" target="sn4AJc1EIGA8AgyFP-6u-165" edge="1">
          <mxGeometry width="50" height="50" relative="1" as="geometry">
            <mxPoint x="1776.25" y="215" as="sourcePoint" />
            <mxPoint x="1673.25" y="-215" as="targetPoint" />
          </mxGeometry>
        </mxCell>
        <mxCell id="sn4AJc1EIGA8AgyFP-6u-168" value="1:1" style="text;html=1;align=center;verticalAlign=middle;resizable=0;points=[];autosize=1;strokeColor=none;fillColor=none;fontStyle=1" parent="1" vertex="1">
          <mxGeometry x="1411.25" y="173" width="40" height="30" as="geometry" />
        </mxCell>
        <mxCell id="sn4AJc1EIGA8AgyFP-6u-169" value="0:N" style="text;html=1;align=center;verticalAlign=middle;resizable=0;points=[];autosize=1;strokeColor=none;fillColor=none;fontStyle=1" parent="1" vertex="1">
          <mxGeometry x="1731.25" y="173" width="40" height="30" as="geometry" />
        </mxCell>
        <mxCell id="sn4AJc1EIGA8AgyFP-6u-170" value="incluye" style="text;html=1;align=center;verticalAlign=middle;resizable=0;points=[];autosize=1;strokeColor=none;fillColor=none;fontSize=16;" parent="1" vertex="1">
          <mxGeometry x="414" y="660" width="70" height="30" as="geometry" />
        </mxCell>
        <mxCell id="sn4AJc1EIGA8AgyFP-6u-171" value="incluido" style="text;html=1;align=center;verticalAlign=middle;resizable=0;points=[];autosize=1;strokeColor=none;fillColor=none;fontSize=16;" parent="1" vertex="1">
          <mxGeometry x="950" y="630" width="80" height="30" as="geometry" />
        </mxCell>
        <mxCell id="sn4AJc1EIGA8AgyFP-6u-172" value="Productividad empleado" style="shape=process;whiteSpace=wrap;html=1;backgroundOutline=1;fillColor=light-dark(#FF99FF,#FF99FF);fontColor=light-dark(#000000,#000000);strokeColor=light-dark(#000000,#000000);fontStyle=1" parent="1" vertex="1">
          <mxGeometry x="1763.75" y="185" width="145" height="60" as="geometry" />
        </mxCell>
        <mxCell id="sn4AJc1EIGA8AgyFP-6u-173" value="" style="endArrow=none;html=1;rounded=0;fontSize=12;startSize=8;endSize=8;curved=1;exitX=0.5;exitY=1;exitDx=0;exitDy=0;strokeColor=light-dark(#000000,#000000);entryX=0.5;entryY=0;entryDx=0;entryDy=0;fontStyle=1" parent="1" source="sn4AJc1EIGA8AgyFP-6u-60" target="sn4AJc1EIGA8AgyFP-6u-175" edge="1">
          <mxGeometry width="50" height="50" relative="1" as="geometry">
            <mxPoint x="1845" y="615" as="sourcePoint" />
            <mxPoint x="1880" y="565" as="targetPoint" />
          </mxGeometry>
        </mxCell>
        <mxCell id="sn4AJc1EIGA8AgyFP-6u-174" value="Fecha inicio" style="ellipse;whiteSpace=wrap;html=1;aspect=fixed;labelBackgroundColor=light-dark(#FF99FF,#FF99FF);fillColor=light-dark(#FF99FF,#FF99FF);fontColor=light-dark(#000000,#000000);gradientColor=none;strokeColor=light-dark(#000000,#000000);fontStyle=1" parent="1" vertex="1">
          <mxGeometry x="1706.25" y="400" width="90" height="90" as="geometry" />
        </mxCell>
        <mxCell id="sn4AJc1EIGA8AgyFP-6u-175" value="Fecha fin" style="ellipse;whiteSpace=wrap;html=1;aspect=fixed;labelBackgroundColor=light-dark(#FF99FF,#FF99FF);fillColor=light-dark(#FF99FF,#FF99FF);fontColor=light-dark(#000000,#000000);gradientColor=none;strokeColor=light-dark(#000000,#000000);fontStyle=1" parent="1" vertex="1">
          <mxGeometry x="1796.25" y="400" width="90" height="90" as="geometry" />
        </mxCell>
        <mxCell id="sn4AJc1EIGA8AgyFP-6u-176" value="" style="endArrow=none;html=1;rounded=0;fontSize=12;startSize=8;endSize=8;curved=1;exitX=0.5;exitY=1;exitDx=0;exitDy=0;strokeColor=light-dark(#000000,#000000);entryX=0.5;entryY=0;entryDx=0;entryDy=0;fontStyle=1" parent="1" source="sn4AJc1EIGA8AgyFP-6u-60" target="sn4AJc1EIGA8AgyFP-6u-174" edge="1">
          <mxGeometry width="50" height="50" relative="1" as="geometry">
            <mxPoint x="1880" y="460" as="sourcePoint" />
            <mxPoint x="1949" y="580" as="targetPoint" />
          </mxGeometry>
        </mxCell>
        <mxCell id="sn4AJc1EIGA8AgyFP-6u-177" value="Email" style="ellipse;shape=doubleEllipse;whiteSpace=wrap;html=1;aspect=fixed;fillColor=#FF99FF;fontStyle=1" parent="1" vertex="1">
          <mxGeometry x="1265.5" y="1055" width="90" height="90" as="geometry" />
        </mxCell>
        <mxCell id="sn4AJc1EIGA8AgyFP-6u-178" value="Teléfono" style="ellipse;shape=doubleEllipse;whiteSpace=wrap;html=1;aspect=fixed;fillColor=#FF99FF;fontStyle=1" parent="1" vertex="1">
          <mxGeometry x="1355.5" y="1055" width="90" height="90" as="geometry" />
        </mxCell>
        <mxCell id="sn4AJc1EIGA8AgyFP-6u-180" value="Nombre zona" style="ellipse;whiteSpace=wrap;html=1;aspect=fixed;fillColor=light-dark(#FF99FF,#FF99FF);fontColor=light-dark(#000000,#000000);strokeColor=light-dark(#000000,#000000);fontStyle=1" parent="1" vertex="1">
          <mxGeometry x="279" y="390" width="90" height="90" as="geometry" />
        </mxCell>
        <mxCell id="sn4AJc1EIGA8AgyFP-6u-181" value="" style="endArrow=none;html=1;rounded=0;fontSize=12;startSize=8;endSize=8;curved=1;exitX=0.5;exitY=0;exitDx=0;exitDy=0;strokeColor=light-dark(#000000,#000000);fontStyle=1;entryX=0.5;entryY=1;entryDx=0;entryDy=0;" parent="1" source="sn4AJc1EIGA8AgyFP-6u-180" edge="1">
          <mxGeometry width="50" height="50" relative="1" as="geometry">
            <mxPoint x="425" y="540" as="sourcePoint" />
            <mxPoint x="413" y="350" as="targetPoint" />
          </mxGeometry>
        </mxCell>
        <mxCell id="sn4AJc1EIGA8AgyFP-6u-183" value="TIpo" style="ellipse;shape=doubleEllipse;whiteSpace=wrap;html=1;aspect=fixed;fillColor=#FF99FF;fontStyle=1" parent="1" vertex="1">
          <mxGeometry x="100" y="610" width="90" height="90" as="geometry" />
        </mxCell>
        <mxCell id="_ZMTgUeuOiyIHHeIGoSa-1" value="" style="endArrow=none;html=1;rounded=0;fontSize=12;startSize=8;endSize=8;curved=1;entryX=0.5;entryY=1;entryDx=0;entryDy=0;strokeColor=light-dark(#000000,#000000);fontStyle=1;exitX=0.5;exitY=0;exitDx=0;exitDy=0;" edge="1" parent="1" source="_ZMTgUeuOiyIHHeIGoSa-4" target="sn4AJc1EIGA8AgyFP-6u-4">
          <mxGeometry width="50" height="50" relative="1" as="geometry">
            <mxPoint x="860" y="520" as="sourcePoint" />
            <mxPoint x="940" y="510" as="targetPoint" />
          </mxGeometry>
        </mxCell>
        <mxCell id="_ZMTgUeuOiyIHHeIGoSa-2" value="" style="endArrow=none;html=1;rounded=0;fontSize=12;startSize=8;endSize=8;curved=1;entryX=0.5;entryY=1;entryDx=0;entryDy=0;strokeColor=light-dark(#000000,#000000);fontStyle=1" edge="1" parent="1" target="sn4AJc1EIGA8AgyFP-6u-4">
          <mxGeometry width="50" height="50" relative="1" as="geometry">
            <mxPoint x="945" y="520" as="sourcePoint" />
            <mxPoint x="985" y="500" as="targetPoint" />
          </mxGeometry>
        </mxCell>
        <mxCell id="_ZMTgUeuOiyIHHeIGoSa-3" value="" style="endArrow=none;html=1;rounded=0;fontSize=12;startSize=8;endSize=8;curved=1;entryX=0.5;entryY=1;entryDx=0;entryDy=0;strokeColor=light-dark(#000000,#000000);fontStyle=1" edge="1" parent="1" target="sn4AJc1EIGA8AgyFP-6u-4">
          <mxGeometry width="50" height="50" relative="1" as="geometry">
            <mxPoint x="1030" y="520" as="sourcePoint" />
            <mxPoint x="965" y="580" as="targetPoint" />
          </mxGeometry>
        </mxCell>
        <mxCell id="_ZMTgUeuOiyIHHeIGoSa-4" value="Calle" style="ellipse;whiteSpace=wrap;html=1;aspect=fixed;strokeColor=light-dark(#000000,#000000);fontColor=light-dark(#000000,#000000);fillColor=light-dark(#FF99FF,#FF99FF);fontStyle=1" vertex="1" parent="1">
          <mxGeometry x="810" y="520" width="90" height="90" as="geometry" />
        </mxCell>
        <mxCell id="_ZMTgUeuOiyIHHeIGoSa-5" value="Nombre" style="ellipse;whiteSpace=wrap;html=1;aspect=fixed;strokeColor=light-dark(#000000,#000000);fontColor=light-dark(#000000,#000000);fillColor=light-dark(#FF99FF,#FF99FF);fontStyle=1" vertex="1" parent="1">
          <mxGeometry x="900" y="520" width="90" height="90" as="geometry" />
        </mxCell>
        <mxCell id="_ZMTgUeuOiyIHHeIGoSa-6" value="Número" style="ellipse;whiteSpace=wrap;html=1;aspect=fixed;strokeColor=light-dark(#000000,#000000);fontColor=light-dark(#000000,#000000);fillColor=light-dark(#FF99FF,#FF99FF);fontStyle=1" vertex="1" parent="1">
          <mxGeometry x="990" y="520" width="90" height="90" as="geometry" />
        </mxCell>
      </root>
    </mxGraphModel>
  </diagram>
</mxfile>
